<svg width="540" height="300" viewBox="0 0 540 300" fill="none" xmlns="http://www.w3.org/2000/svg">
<rect width="540" height="300" fill="white"/>
<rect width="540" height="300" fill="url(#paint0_linear_3811_36070)"/>
<path d="M238.705 171.515C237.631 171.515 236.708 171.258 235.934 170.742C235.161 170.184 234.539 169.325 234.066 168.165L224.724 144.326C224.337 143.295 224.208 142.393 224.337 141.62C224.509 140.804 224.917 140.16 225.561 139.687C226.206 139.215 227.065 138.979 228.139 138.979C229.083 138.979 229.857 139.215 230.458 139.687C231.059 140.117 231.575 140.954 232.004 142.2L239.8 163.655H238.318L246.372 141.685C246.716 140.74 247.167 140.052 247.725 139.623C248.326 139.193 249.1 138.979 250.045 138.979C250.99 138.979 251.763 139.215 252.364 139.687C252.965 140.117 253.416 140.783 253.717 141.685L261.642 163.655H260.289L268.149 142.007C268.579 140.847 269.116 140.052 269.76 139.623C270.447 139.193 271.199 138.979 272.015 138.979C273.046 138.979 273.841 139.236 274.399 139.752C274.957 140.267 275.279 140.933 275.365 141.749C275.451 142.522 275.301 143.381 274.914 144.326L265.636 168.165C265.207 169.282 264.584 170.119 263.768 170.678C262.995 171.236 262.071 171.515 260.998 171.515C259.924 171.515 258.979 171.236 258.163 170.678C257.39 170.119 256.788 169.282 256.359 168.165L247.918 145.808H251.591L243.344 168.101C242.914 169.26 242.313 170.119 241.54 170.678C240.767 171.236 239.822 171.515 238.705 171.515ZM292.71 171.644C290.434 171.644 288.394 171.215 286.59 170.356C284.829 169.454 283.433 168.251 282.402 166.748C281.414 165.244 280.92 163.548 280.92 161.658C280.92 159.338 281.521 157.513 282.724 156.181C283.927 154.807 285.881 153.819 288.587 153.217C291.293 152.616 294.923 152.315 299.476 152.315H302.697V156.954H299.54C296.877 156.954 294.751 157.083 293.161 157.341C291.572 157.599 290.434 158.05 289.747 158.694C289.102 159.295 288.78 160.154 288.78 161.271C288.78 162.689 289.274 163.848 290.262 164.75C291.25 165.652 292.625 166.103 294.386 166.103C295.803 166.103 297.049 165.781 298.123 165.137C299.239 164.45 300.12 163.526 300.764 162.366C301.408 161.207 301.731 159.875 301.731 158.372V150.962C301.731 148.815 301.258 147.268 300.313 146.323C299.368 145.379 297.779 144.906 295.545 144.906C294.3 144.906 292.947 145.056 291.486 145.357C290.069 145.658 288.566 146.173 286.976 146.903C286.16 147.29 285.43 147.397 284.786 147.226C284.184 147.054 283.712 146.71 283.368 146.195C283.025 145.636 282.853 145.035 282.853 144.391C282.853 143.746 283.025 143.123 283.368 142.522C283.712 141.878 284.292 141.405 285.108 141.105C287.084 140.289 288.974 139.709 290.778 139.365C292.625 139.021 294.3 138.85 295.803 138.85C298.896 138.85 301.43 139.322 303.406 140.267C305.425 141.212 306.928 142.651 307.916 144.584C308.904 146.474 309.398 148.922 309.398 151.929V167.392C309.398 168.723 309.076 169.754 308.431 170.485C307.787 171.172 306.864 171.515 305.661 171.515C304.458 171.515 303.513 171.172 302.826 170.485C302.182 169.754 301.859 168.723 301.859 167.392V164.299H302.375C302.074 165.803 301.473 167.113 300.571 168.23C299.712 169.303 298.617 170.141 297.285 170.742C295.953 171.344 294.429 171.644 292.71 171.644ZM323.077 171.451C321.788 171.451 320.8 171.064 320.113 170.291C319.426 169.518 319.082 168.444 319.082 167.07V143.424C319.082 142.007 319.426 140.933 320.113 140.203C320.8 139.43 321.788 139.043 323.077 139.043C324.366 139.043 325.353 139.43 326.041 140.203C326.771 140.933 327.136 142.007 327.136 143.424V167.07C327.136 168.444 326.792 169.518 326.105 170.291C325.418 171.064 324.408 171.451 323.077 171.451ZM323.077 133.051C321.574 133.051 320.392 132.686 319.533 131.956C318.717 131.183 318.309 130.13 318.309 128.799C318.309 127.424 318.717 126.372 319.533 125.642C320.392 124.911 321.574 124.546 323.077 124.546C324.623 124.546 325.804 124.911 326.621 125.642C327.437 126.372 327.845 127.424 327.845 128.799C327.845 130.13 327.437 131.183 326.621 131.956C325.804 132.686 324.623 133.051 323.077 133.051ZM351.447 171.644C348.655 171.644 346.314 171.172 344.424 170.227C342.577 169.282 341.202 167.907 340.3 166.103C339.398 164.256 338.947 161.98 338.947 159.274V145.55H335.597C334.566 145.55 333.771 145.293 333.213 144.777C332.655 144.219 332.375 143.467 332.375 142.522C332.375 141.534 332.655 140.783 333.213 140.267C333.771 139.752 334.566 139.494 335.597 139.494H338.947V133.631C338.947 132.299 339.291 131.29 339.978 130.603C340.708 129.915 341.718 129.572 343.006 129.572C344.295 129.572 345.283 129.915 345.97 130.603C346.657 131.29 347.001 132.299 347.001 133.631V139.494H353.83C354.861 139.494 355.656 139.752 356.214 140.267C356.773 140.783 357.052 141.534 357.052 142.522C357.052 143.467 356.773 144.219 356.214 144.777C355.656 145.293 354.861 145.55 353.83 145.55H347.001V158.823C347.001 160.885 347.452 162.431 348.354 163.462C349.256 164.493 350.716 165.008 352.735 165.008C353.465 165.008 354.11 164.944 354.668 164.815C355.226 164.686 355.72 164.6 356.15 164.557C356.665 164.514 357.095 164.686 357.439 165.072C357.782 165.416 357.954 166.146 357.954 167.263C357.954 168.122 357.804 168.895 357.503 169.583C357.245 170.227 356.751 170.678 356.021 170.936C355.463 171.107 354.732 171.258 353.83 171.387C352.928 171.558 352.134 171.644 351.447 171.644ZM378.465 171.644C374.9 171.644 371.828 170.979 369.251 169.647C366.674 168.315 364.677 166.426 363.259 163.977C361.885 161.529 361.198 158.63 361.198 155.279C361.198 152.015 361.863 149.158 363.195 146.71C364.569 144.262 366.438 142.35 368.8 140.976C371.206 139.558 373.933 138.85 376.983 138.85C379.216 138.85 381.214 139.215 382.975 139.945C384.779 140.675 386.304 141.728 387.549 143.102C388.838 144.477 389.804 146.152 390.449 148.128C391.136 150.06 391.479 152.251 391.479 154.699C391.479 155.472 391.2 156.074 390.642 156.503C390.126 156.89 389.375 157.083 388.387 157.083H367.705V152.444H385.81L384.779 153.411C384.779 151.435 384.478 149.781 383.877 148.45C383.318 147.118 382.481 146.109 381.364 145.421C380.29 144.691 378.937 144.326 377.305 144.326C375.501 144.326 373.955 144.756 372.666 145.615C371.42 146.431 370.454 147.612 369.767 149.158C369.122 150.662 368.8 152.466 368.8 154.57V155.021C368.8 158.544 369.616 161.185 371.249 162.946C372.924 164.664 375.372 165.523 378.594 165.523C379.71 165.523 380.956 165.395 382.33 165.137C383.748 164.836 385.079 164.342 386.325 163.655C387.227 163.14 388.022 162.925 388.709 163.011C389.396 163.054 389.933 163.29 390.32 163.719C390.749 164.149 391.007 164.686 391.093 165.33C391.179 165.932 391.05 166.554 390.706 167.199C390.406 167.843 389.869 168.401 389.096 168.874C387.592 169.819 385.853 170.528 383.877 171C381.944 171.43 380.14 171.644 378.465 171.644ZM403.491 171.515C402.159 171.515 401.129 171.172 400.398 170.485C399.711 169.754 399.368 168.723 399.368 167.392V143.038C399.368 141.706 399.711 140.697 400.398 140.009C401.086 139.322 402.052 138.979 403.298 138.979C404.543 138.979 405.51 139.322 406.197 140.009C406.884 140.697 407.228 141.706 407.228 143.038V147.097H406.584C407.185 144.519 408.366 142.565 410.127 141.234C411.888 139.902 414.229 139.107 417.15 138.85C418.052 138.764 418.761 139 419.276 139.558C419.835 140.074 420.157 140.89 420.243 142.007C420.329 143.081 420.071 143.961 419.47 144.648C418.911 145.293 418.052 145.679 416.892 145.808L415.475 145.937C412.855 146.195 410.879 147.011 409.547 148.385C408.216 149.717 407.55 151.607 407.55 154.055V167.392C407.55 168.723 407.206 169.754 406.519 170.485C405.832 171.172 404.823 171.515 403.491 171.515Z" fill="#202A2E"/>
<path d="M198.255 135.082C196.58 146.446 196.508 156.178 198.259 168.538C199.105 174.505 192.946 179.327 187.209 176.953L161.675 166.503C159.749 165.715 157.591 165.715 155.665 166.503L130.131 176.953C124.394 179.327 118.235 174.505 119.081 168.538C120.832 156.178 120.76 146.446 119.085 135.082C118.221 129.224 124.11 124.388 129.835 126.508L155.978 135.938C157.718 136.566 159.622 136.566 161.362 135.938L187.505 126.508C193.23 124.388 199.119 129.224 198.255 135.082Z" fill="url(#paint1_linear_3811_36070)"/>
<defs>
<linearGradient id="paint0_linear_3811_36070" x1="270" y1="-1.52006e-08" x2="270" y2="300" gradientUnits="userSpaceOnUse">
<stop stop-color="white"/>
<stop offset="1" stop-color="#E0EAEF"/>
</linearGradient>
<linearGradient id="paint1_linear_3811_36070" x1="158.67" y1="126" x2="158.732" y2="177.571" gradientUnits="userSpaceOnUse">
<stop stop-color="#506874"/>
<stop offset="1" stop-color="#202A2E"/>
</linearGradient>
</defs>
</svg>
